<svg data-name="Layer 1" xmlns="http://www.w3.org/2000/svg" viewBox="0 0 74 74">
                                            <defs>
                                                <style>
                                                    .ue-1 {
                                                        fill: #44638B;
                                                    }
                                                    
                                                    .ue-2 {
                                                        opacity: 0.6;
                                                    }
                                                </style>
                                            </defs>
                                            <title>Artboard 49</title>
                                            <path class="cls-1" d="M37,57.67h0Z" />
                                            <path class="ue-1" d="M37,29.75A7.25,7.25,0,1,0,44.25,37,7.26,7.26,0,0,0,37,29.75ZM41.5,37A4.5,4.5,0,1,1,37,32.5,4.51,4.51,0,0,1,41.5,37Z" />
                                            <path class="ue-1" d="M73.56,36.34a43.87,43.87,0,0,0-73.13,0L0,37l.44.66A43.8,43.8,0,0,0,31.79,57a44.08,44.08,0,0,0,5.19.31h0A44,44,0,0,0,42.21,57,43.8,43.8,0,0,0,73.56,37.66L74,37ZM37,19.45a17.55,17.55,0,0,1,0,35.09h0a17.55,17.55,0,0,1,0-35.09ZM3.31,37A41.16,41.16,0,0,1,22.84,22l.9-.31a20.22,20.22,0,0,0,0,30.66l-.9-.31A41.16,41.16,0,0,1,3.31,37ZM51.16,52l-.9.31a20.22,20.22,0,0,0,0-30.66l.9.31A41.17,41.17,0,0,1,70.69,37,41.17,41.17,0,0,1,51.16,52Z" />
                                            <g class="ue-2">
                                                <polygon class="ue-1" points="66.34 15.53 69 15.53 69 5 58.47 5 58.47 7.66 66.34 7.66 66.34 15.53" />
                                                <polygon class="ue-1" points="7.66 7.66 15.53 7.66 15.53 5 5 5 5 15.53 7.66 15.53 7.66 7.66" />
                                                <polygon class="ue-1" points="66.34 66.34 58.47 66.34 58.47 69 69 69 69 58.47 66.34 58.47 66.34 66.34" />
                                                <polygon class="ue-1" points="7.66 58.47 5 58.47 5 69 15.53 69 15.53 66.34 7.66 66.34 7.66 58.47" />
                                                <rect class="ue-1" x="29.33" y="5" width="3.07" height="2.66" />
                                                <rect class="ue-1" x="35.47" y="5" width="3.07" height="2.66" />
                                                <rect class="ue-1" x="41.6" y="5" width="3.07" height="2.66" />
                                                <rect class="ue-1" x="29.33" y="66.34" width="3.07" height="2.66" />
                                                <rect class="ue-1" x="35.47" y="66.34" width="3.07" height="2.66" />
                                                <rect class="ue-1" x="41.6" y="66.34" width="3.07" height="2.66" /> </g>
                                        </svg>