<svg id="Layer_1" data-name="Layer 1" xmlns="http://www.w3.org/2000/svg" viewBox="0 0 74 74">
                                            <defs>
                                                <style>
                                                    .cls-1 {
                                                        opacity: 0.6;
                                                    }
                                                    
                                                    .cls-2 {
                                                        fill: #44638B;
                                                    }
                                                </style>
                                            </defs>
                                            <title>Artboard 1 copy</title>
                                            <g class="cls-1">
                                                <rect class="cls-2" x="13.88" y="18.5" width="2.31" height="2.31" /> </g>
                                            <g class="cls-1">
                                                <rect class="cls-2" x="18.5" y="18.5" width="2.31" height="2.31" /> </g>
                                            <g class="cls-1">
                                                <rect class="cls-2" x="23.13" y="18.5" width="2.31" height="2.31" /> </g>
                                            <g class="cls-1">
                                                <path class="cls-2" d="M74,60.12H4.62A4.62,4.62,0,0,1,0,55.5V0H22.45l4.62,4.62H69.38V9.25H67.06V6.94H26.11L21.49,2.31H2.31V55.5a2.32,2.32,0,0,0,4.63,0V11.56H74ZM8.63,57.81H71.69V13.88H9.25V55.5A4.64,4.64,0,0,1,8.63,57.81Z" /> </g>
                                            <path class="cls-2" d="M40.47,51.89a16,16,0,1,1,16-16A16.06,16.06,0,0,1,40.47,51.89Zm0-30.08a14,14,0,1,0,14,14A14,14,0,0,0,40.47,21.81Z" />
                                            <rect class="cls-2" x="40.47" y="34.84" width="8.02" height="2.01" />
                                            <rect class="cls-2" x="39.47" y="29.63" width="2.01" height="7.22" />
                                            <circle class="cls-2" cx="40.47" cy="35.84" r="2.01" />
                                            <rect class="cls-2" x="50.5" y="34.84" width="2.01" height="2.01" />
                                            <rect class="cls-2" x="28.44" y="34.84" width="2.01" height="2.01" />
                                            <rect class="cls-2" x="39.47" y="23.81" width="2.01" height="2.01" />
                                            <rect class="cls-2" x="39.47" y="45.87" width="2.01" height="2.01" />
                                            <rect class="cls-2" x="32.45" y="27.82" width="2.01" height="2.01" />
                                            <rect class="cls-2" x="46.49" y="27.82" width="2.01" height="2.01" />
                                            <rect class="cls-2" x="32.45" y="41.86" width="2.01" height="2.01" />
                                            <rect class="cls-2" x="46.49" y="41.86" width="2.01" height="2.01" />
                                            <path class="cls-2" d="M72.84,74h-22a1.23,1.23,0,0,1-.65-.19L47.55,72l-1.64,1.64a1.15,1.15,0,0,1-.82.34H41.62a1.16,1.16,0,0,1-1.15-1.16V63.59a1.15,1.15,0,0,1,1.15-1.15h3.47a1.15,1.15,0,0,1,.82.34l1.64,1.64,2.68-1.79a1.23,1.23,0,0,1,.65-.19h22A1.15,1.15,0,0,1,74,63.59v9.25A1.16,1.16,0,0,1,72.84,74ZM51.22,71.69H71.69V64.75H51.22l-3.17,2.12a1.15,1.15,0,0,1-1.46-.15l-2-2H42.78v6.94h1.83l2-2a1.15,1.15,0,0,1,1.46-.14Z" />
                                            <rect class="cls-2" x="10.41" y="67.06" width="31.22" height="2.31" />
                                            <path class="cls-2" d="M10.41,71.69H1.16A1.16,1.16,0,0,1,0,70.53V65.91a1.16,1.16,0,0,1,1.16-1.16h9.25a1.16,1.16,0,0,1,1.15,1.16v4.62A1.16,1.16,0,0,1,10.41,71.69Zm-8.1-2.31H9.25V67.06H2.31Z" /> </svg>